HIERARCHY
ROOT pelvis
{
  OFFSET 0 100 0
  CHANNELS 6 Xposition Yposition Zposition Zrotation Xrotation Yrotation
  JOINT pelvis_right_femur
  {
    OFFSET -10.78128 -3.44521 -0.5502486
    CHANNELS 3 Zrotation Xrotation Yrotation
    JOINT right_femur_tibia
    {
      OFFSET -0.8047443 -44.0398 -0.1307829
      CHANNELS 3 Zrotation Xrotation Yrotation
      JOINT right_tibia_foot
      {
        OFFSET 3.006224 -47.83518 -5
        CHANNELS 3 Zrotation Xrotation Yrotation
        End Site
        {
          OFFSET 0 -5 15
        }
      }
    }
  }
  JOINT pelvis_left_femur
  {
    OFFSET 10.78128 -3.44521 -0.5502486
    CHANNELS 3 Zrotation Xrotation Yrotation
    JOINT left_femur_tibia
    {
      OFFSET 0.8047443 -44.0398 -0.1307829
      CHANNELS 3 Zrotation Xrotation Yrotation
      JOINT left_tibia_foot
      {
        OFFSET -4.370144 -48.10324 -4.275266
        CHANNELS 3 Zrotation Xrotation Yrotation
        End Site
        {
          OFFSET 0 -5 15
        }
      }
    }
  }
  JOINT pelvis_spine1
  {
    OFFSET 0 6.468898 -3.129235
    CHANNELS 3 Zrotation Xrotation Yrotation
    JOINT spine1
    {
      OFFSET 0 23.15396 4.99043
      CHANNELS 3 Zrotation Xrotation Yrotation
      JOINT spine2
      {
        OFFSET 0 20.79997 -5.064912
        CHANNELS 3 Zrotation Xrotation Yrotation
        JOINT neck
        {
          OFFSET 0 14.38658 9.616178
          CHANNELS 3 Zrotation Xrotation Yrotation
          End Site
          {
            OFFSET 0 20 0
          }
        }
      }
      JOINT right_manubrium
      {
        OFFSET -5.722621 16.35077 3.967754
        CHANNELS 3 Zrotation Xrotation Yrotation
        JOINT right_clavicle
        {
          OFFSET -13.16364 1.694482 -4.693211
          CHANNELS 3 Zrotation Xrotation Yrotation
          JOINT right_humerus
          {
            OFFSET -28.5034 -0.3100689 -2.792744
            CHANNELS 3 Zrotation Xrotation Yrotation
            JOINT right_radius
            {
              OFFSET -25.15693 0.02248979 -1.271978
              CHANNELS 3 Zrotation Xrotation Yrotation
              End Site
              {
                OFFSET -15 0 0
              }
            }
          }
        }
      }
      JOINT left_manubrium
      {
        OFFSET 5.722621 16.35077 3.967754
        CHANNELS 3 Zrotation Xrotation Yrotation
        JOINT left_clavicle
        {
          OFFSET 13.16364 1.694482 -4.693211
          CHANNELS 3 Zrotation Xrotation Yrotation
          JOINT left_humerus
          {
            OFFSET 29.39168 -1.063119 -2.237045
            CHANNELS 3 Zrotation Xrotation Yrotation
            JOINT left_radius
            {
              OFFSET 24.59957 -0.9528479 0.9047498
              CHANNELS 3 Zrotation Xrotation Yrotation
              End Site
              {
                OFFSET 15 -0 -0
              }
            }
          }
        }
      }
    }
  }
}
MOTION
Frames: 23
Frame Time: 0.0416666666667
2.696284 103.6177 209.6318 -1.953896 -14.62672 -2.658131 7.651076 6.141834 2.779899 -0 22.57409 -0 -5.405811 -10.82753 -6.610231 3.673551 -4.289078 -0.7000332 -0 19.70678 -0 0.9586919 -0.02672719 9.064974 3.938419 -4.615922 8.393633 0.1572677 18.77972 -8.274548 0.7865135 18.30014 0.598881 -1.403115 -14.12902 3.017636 -5.578495 -34.51167 12.76902 96.63673 5.373965 -15.33253 -0 0 32.00994 -26.72109 20.83416 14.96443 -1.748242 -24.86956 -12.97013 -90.72357 9.448938 39.41833 0 0 -19.69236 -0.9818157 14.38605 13.95097
3.597529 103.6175 215.9394 -2.157073 -14.59875 -3.463468 7.651076 6.141834 2.779899 -0 22.57409 -0 -5.405811 -10.82753 -6.610231 3.673551 -4.289078 -0.7000332 -0 19.70678 -0 0.9586919 -0.02672719 9.064974 3.938419 -4.615922 8.393633 0.1572677 18.77972 -8.274548 0.7865135 18.30014 0.598881 -1.403115 -14.12902 3.017636 -5.578495 -34.51167 12.76902 96.63673 5.373965 -15.33253 -0 0 32.00994 -26.72109 20.83416 14.96443 -1.748242 -24.86956 -12.97013 -90.72357 9.448938 39.41833 0 0 -19.69236 -0.9818157 14.38605 13.95097
4.412847 103.6173 222.2587 -2.359797 -14.56802 -4.26859 7.651076 6.141834 2.779899 -0 22.57409 -0 -5.405811 -10.82753 -6.610231 3.673551 -4.289078 -0.7000332 -0 19.70678 -0 0.9586919 -0.02672719 9.064974 3.938419 -4.615922 8.393633 0.1572677 18.77972 -8.274548 0.7865135 18.30014 0.598881 -1.403115 -14.12902 3.017636 -5.578495 -34.51167 12.76902 96.63673 5.373965 -15.33253 -0 0 32.00994 -26.72109 20.83416 14.96443 -1.748242 -24.86956 -12.97013 -90.72357 9.448938 39.41833 0 0 -19.69236 -0.9818157 14.38605 13.95097
5.142088 103.6171 228.5885 -2.562025 -14.53454 -5.073478 7.651076 6.141834 2.779899 -0 22.57409 -0 -5.405811 -10.82753 -6.610231 3.673551 -4.289078 -0.7000332 -0 19.70678 -0 0.9586919 -0.02672719 9.064974 3.938419 -4.615922 8.393633 0.1572677 18.77972 -8.274548 0.7865135 18.30014 0.598881 -1.403115 -14.12902 3.017636 -5.578495 -34.51167 12.76902 96.63673 5.373965 -15.33253 -0 0 32.00994 -26.72109 20.83416 14.96443 -1.748242 -24.86956 -12.97013 -90.72357 9.448938 39.41833 0 0 -19.69236 -0.9818157 14.38605 13.95097
5.785116 103.6169 234.9277 -2.763716 -14.49831 -5.878112 7.651076 6.141834 2.779899 -0 22.57409 -0 -5.405811 -10.82753 -6.610231 3.673551 -4.289078 -0.7000332 -0 19.70678 -0 0.9586919 -0.02672719 9.064974 3.938419 -4.615922 8.393633 0.1572677 18.77972 -8.274548 0.7865135 18.30014 0.598881 -1.403115 -14.12902 3.017636 -5.578495 -34.51167 12.76902 96.63673 5.373965 -15.33253 -0 0 32.00994 -26.72109 20.83416 14.96443 -1.748242 -24.86956 -12.97013 -90.72357 9.448938 39.41833 0 0 -19.69236 -0.9818157 14.38605 13.95097
6.341812 103.6167 241.275 -2.964827 -14.45934 -6.682473 7.651076 6.141834 2.779899 -0 22.57409 -0 -5.405811 -10.82753 -6.610231 3.673551 -4.289078 -0.7000332 -0 19.70678 -0 0.9586919 -0.02672719 9.064974 3.938419 -4.615922 8.393633 0.1572677 18.77972 -8.274548 0.7865135 18.30014 0.598881 -1.403115 -14.12902 3.017636 -5.578495 -34.51167 12.76902 96.63673 5.373965 -15.33253 -0 0 32.00994 -26.72109 20.83416 14.96443 -1.748242 -24.86956 -12.97013 -90.72357 9.448938 39.41833 0 0 -19.69236 -0.9818157 14.38605 13.95097
6.812072 103.6165 247.6293 -3.165317 -14.41765 -7.486542 7.651076 6.141834 2.779899 -0 22.57409 -0 -5.405811 -10.82753 -6.610231 3.673551 -4.289078 -0.7000332 -0 19.70678 -0 0.9586919 -0.02672719 9.064974 3.938419 -4.615922 8.393633 0.1572677 18.77972 -8.274548 0.7865135 18.30014 0.598881 -1.403115 -14.12902 3.017636 -5.578495 -34.51167 12.76902 96.63673 5.373965 -15.33253 -0 0 32.00994 -26.72109 20.83416 14.96443 -1.748242 -24.86956 -12.97013 -90.72357 9.448938 39.41833 0 0 -19.69236 -0.9818157 14.38605 13.95097
7.195811 103.6163 253.9894 -3.365145 -14.37323 -8.2903 7.651076 6.141834 2.779899 -0 22.57409 -0 -5.405811 -10.82753 -6.610231 3.673551 -4.289078 -0.7000332 -0 19.70678 -0 0.9586919 -0.02672719 9.064974 3.938419 -4.615922 8.393633 0.1572677 18.77972 -8.274548 0.7865135 18.30014 0.598881 -1.403115 -14.12902 3.017636 -5.578495 -34.51167 12.76902 96.63673 5.373965 -15.33253 -0 0 32.00994 -26.72109 20.83416 14.96443 -1.748242 -24.86956 -12.97013 -90.72357 9.448938 39.41833 0 0 -19.69236 -0.9818157 14.38605 13.95097
7.492957 103.616 260.3541 -3.564269 -14.3261 -9.09373 7.651076 6.141834 2.779899 -0 22.57409 -0 -5.405811 -10.82753 -6.610231 3.673551 -4.289078 -0.7000332 -0 19.70678 -0 0.9586919 -0.02672719 9.064974 3.938419 -4.615922 8.393633 0.1572677 18.77972 -8.274548 0.7865135 18.30014 0.598881 -1.403115 -14.12902 3.017636 -5.578495 -34.51167 12.76902 96.63673 5.373965 -15.33253 -0 0 32.00994 -26.72109 20.83416 14.96443 -1.748242 -24.86956 -12.97013 -90.72357 9.448938 39.41833 0 0 -19.69236 -0.9818157 14.38605 13.95097
7.703454 103.6158 266.7223 -3.762649 -14.27628 -9.896812 7.651076 6.141834 2.779899 -0 22.57409 -0 -5.405811 -10.82753 -6.610231 3.673551 -4.289078 -0.7000332 -0 19.70678 -0 0.9586919 -0.02672719 9.064974 3.938419 -4.615922 8.393633 0.1572677 18.77972 -8.274548 0.7865135 18.30014 0.598881 -1.403115 -14.12902 3.017636 -5.578495 -34.51167 12.76902 96.63673 5.373965 -15.33253 -0 0 32.00994 -26.72109 20.83416 14.96443 -1.748242 -24.86956 -12.97013 -90.72357 9.448938 39.41833 0 0 -19.69236 -0.9818157 14.38605 13.95097
7.827264 103.6156 273.0928 -3.960243 -14.22376 -10.69953 7.651076 6.141834 2.779899 -0 22.57409 -0 -5.405811 -10.82753 -6.610231 3.673551 -4.289078 -0.7000332 -0 19.70678 -0 0.9586919 -0.02672719 9.064974 3.938419 -4.615922 8.393633 0.1572677 18.77972 -8.274548 0.7865135 18.30014 0.598881 -1.403115 -14.12902 3.017636 -5.578495 -34.51167 12.76902 96.63673 5.373965 -15.33253 -0 0 32.00994 -26.72109 20.83416 14.96443 -1.748242 -24.86956 -12.97013 -90.72357 9.448938 39.41833 0 0 -19.69236 -0.9818157 14.38605 13.95097
7.864364 103.6154 279.4644 -4.157013 -14.16857 -11.50186 7.651076 6.141834 2.779899 -0 22.57409 -0 -5.405811 -10.82753 -6.610231 3.673551 -4.289078 -0.7000332 -0 19.70678 -0 0.9586919 -0.02672719 9.064974 3.938419 -4.615922 8.393633 0.1572677 18.77972 -8.274548 0.7865135 18.30014 0.598881 -1.403115 -14.12902 3.017636 -5.578495 -34.51167 12.76902 96.63673 5.373965 -15.33253 -0 0 32.00994 -26.72109 20.83416 14.96443 -1.748242 -24.86956 -12.97013 -90.72357 9.448938 39.41833 0 0 -19.69236 -0.9818157 14.38605 13.95097
7.814748 103.6152 285.8359 -4.352918 -14.11071 -12.3038 7.651076 6.141834 2.779899 -0 22.57409 -0 -5.405811 -10.82753 -6.610231 3.673551 -4.289078 -0.7000332 -0 19.70678 -0 0.9586919 -0.02672719 9.064974 3.938419 -4.615922 8.393633 0.1572677 18.77972 -8.274548 0.7865135 18.30014 0.598881 -1.403115 -14.12902 3.017636 -5.578495 -34.51167 12.76902 96.63673 5.373965 -15.33253 -0 0 32.00994 -26.72109 20.83416 14.96443 -1.748242 -24.86956 -12.97013 -90.72357 9.448938 39.41833 0 0 -19.69236 -0.9818157 14.38605 13.95097
7.678423 103.615 292.2061 -4.547918 -14.0502 -13.10532 7.651076 6.141834 2.779899 -0 22.57409 -0 -5.405811 -10.82753 -6.610231 3.673551 -4.289078 -0.7000332 -0 19.70678 -0 0.9586919 -0.02672719 9.064974 3.938419 -4.615922 8.393633 0.1572677 18.77972 -8.274548 0.7865135 18.30014 0.598881 -1.403115 -14.12902 3.017636 -5.578495 -34.51167 12.76902 96.63673 5.373965 -15.33253 -0 0 32.00994 -26.72109 20.83416 14.96443 -1.748242 -24.86956 -12.97013 -90.72357 9.448938 39.41833 0 0 -19.69236 -0.9818157 14.38605 13.95097
7.455415 103.6148 298.5739 -4.741974 -13.98705 -13.90641 7.651076 6.141834 2.779899 -0 22.57409 -0 -5.405811 -10.82753 -6.610231 3.673551 -4.289078 -0.7000332 -0 19.70678 -0 0.9586919 -0.02672719 9.064974 3.938419 -4.615922 8.393633 0.1572677 18.77972 -8.274548 0.7865135 18.30014 0.598881 -1.403115 -14.12902 3.017636 -5.578495 -34.51167 12.76902 96.63673 5.373965 -15.33253 -0 0 32.00994 -26.72109 20.83416 14.96443 -1.748242 -24.86956 -12.97013 -90.72357 9.448938 39.41833 0 0 -19.69236 -0.9818157 14.38605 13.95097
7.145767 103.6145 304.938 -4.935047 -13.92128 -14.70704 7.651076 6.141834 2.779899 -0 22.57409 -0 -5.405811 -10.82753 -6.610231 3.673551 -4.289078 -0.7000332 -0 19.70678 -0 0.9586919 -0.02672719 9.064974 3.938419 -4.615922 8.393633 0.1572677 18.77972 -8.274548 0.7865135 18.30014 0.598881 -1.403115 -14.12902 3.017636 -5.578495 -34.51167 12.76902 96.63673 5.373965 -15.33253 -0 0 32.00994 -26.72109 20.83416 14.96443 -1.748242 -24.86956 -12.97013 -90.72357 9.448938 39.41833 0 0 -19.69236 -0.9818157 14.38605 13.95097
6.749534 103.6143 311.2974 -5.127099 -13.85289 -15.50722 7.651076 6.141834 2.779899 -0 22.57409 -0 -5.405811 -10.82753 -6.610231 3.673551 -4.289078 -0.7000332 -0 19.70678 -0 0.9586919 -0.02672719 9.064974 3.938419 -4.615922 8.393633 0.1572677 18.77972 -8.274548 0.7865135 18.30014 0.598881 -1.403115 -14.12902 3.017636 -5.578495 -34.51167 12.76902 96.63673 5.373965 -15.33253 -0 0 32.00994 -26.72109 20.83416 14.96443 -1.748242 -24.86956 -12.97013 -90.72357 9.448938 39.41833 0 0 -19.69236 -0.9818157 14.38605 13.95097
6.266791 103.6141 317.6507 -5.318091 -13.78191 -16.30691 7.651076 6.141834 2.779899 -0 22.57409 -0 -5.405811 -10.82753 -6.610231 3.673551 -4.289078 -0.7000332 -0 19.70678 -0 0.9586919 -0.02672719 9.064974 3.938419 -4.615922 8.393633 0.1572677 18.77972 -8.274548 0.7865135 18.30014 0.598881 -1.403115 -14.12902 3.017636 -5.578495 -34.51167 12.76902 96.63673 5.373965 -15.33253 -0 0 32.00994 -26.72109 20.83416 14.96443 -1.748242 -24.86956 -12.97013 -90.72357 9.448938 39.41833 0 0 -19.69236 -0.9818157 14.38605 13.95097
5.697627 103.6139 323.9969 -5.507986 -13.70835 -17.10611 7.651076 6.141834 2.779899 -0 22.57409 -0 -5.405811 -10.82753 -6.610231 3.673551 -4.289078 -0.7000332 -0 19.70678 -0 0.9586919 -0.02672719 9.064974 3.938419 -4.615922 8.393633 0.1572677 18.77972 -8.274548 0.7865135 18.30014 0.598881 -1.403115 -14.12902 3.017636 -5.578495 -34.51167 12.76902 96.63673 5.373965 -15.33253 -0 0 32.00994 -26.72109 20.83416 14.96443 -1.748242 -24.86956 -12.97013 -90.72357 9.448938 39.41833 0 0 -19.69236 -0.9818157 14.38605 13.95097
5.042147 103.6137 330.3348 -5.696747 -13.63222 -17.9048 7.651076 6.141834 2.779899 -0 22.57409 -0 -5.405811 -10.82753 -6.610231 3.673551 -4.289078 -0.7000332 -0 19.70678 -0 0.9586919 -0.02672719 9.064974 3.938419 -4.615922 8.393633 0.1572677 18.77972 -8.274548 0.7865135 18.30014 0.598881 -1.403115 -14.12902 3.017636 -5.578495 -34.51167 12.76902 96.63673 5.373965 -15.33253 -0 0 32.00994 -26.72109 20.83416 14.96443 -1.748242 -24.86956 -12.97013 -90.72357 9.448938 39.41833 0 0 -19.69236 -0.9818157 14.38605 13.95097
4.300473 103.6135 336.6632 -5.884336 -13.55355 -18.70296 7.651076 6.141834 2.779899 -0 22.57409 -0 -5.405811 -10.82753 -6.610231 3.673551 -4.289078 -0.7000332 -0 19.70678 -0 0.9586919 -0.02672719 9.064974 3.938419 -4.615922 8.393633 0.1572677 18.77972 -8.274548 0.7865135 18.30014 0.598881 -1.403115 -14.12902 3.017636 -5.578495 -34.51167 12.76902 96.63673 5.373965 -15.33253 -0 0 32.00994 -26.72109 20.83416 14.96443 -1.748242 -24.86956 -12.97013 -90.72357 9.448938 39.41833 0 0 -19.69236 -0.9818157 14.38605 13.95097
3.472742 103.6133 342.9808 -6.070717 -13.47234 -19.50059 7.651076 6.141834 2.779899 -0 22.57409 -0 -5.405811 -10.82753 -6.610231 3.673551 -4.289078 -0.7000332 -0 19.70678 -0 0.9586919 -0.02672719 9.064974 3.938419 -4.615922 8.393633 0.1572677 18.77972 -8.274548 0.7865135 18.30014 0.598881 -1.403115 -14.12902 3.017636 -5.578495 -34.51167 12.76902 96.63673 5.373965 -15.33253 -0 0 32.00994 -26.72109 20.83416 14.96443 -1.748242 -24.86956 -12.97013 -90.72357 9.448938 39.41833 0 0 -19.69236 -0.9818157 14.38605 13.95097
2.559108 103.6131 349.2867 -6.255854 -13.38862 -20.29767 7.651076 6.141834 2.779899 -0 22.57409 -0 -5.405811 -10.82753 -6.610231 3.673551 -4.289078 -0.7000332 -0 19.70678 -0 0.9586919 -0.02672719 9.064974 3.938419 -4.615922 8.393633 0.1572677 18.77972 -8.274548 0.7865135 18.30014 0.598881 -1.403115 -14.12902 3.017636 -5.578495 -34.51167 12.76902 96.63673 5.373965 -15.33253 -0 0 32.00994 -26.72109 20.83416 14.96443 -1.748242 -24.86956 -12.97013 -90.72357 9.448938 39.41833 0 0 -19.69236 -0.9818157 14.38605 13.95097
